<?xml version="1.0" standalone="no"?><!DOCTYPE svg PUBLIC "-//W3C//DTD SVG 1.1//EN" "http://www.w3.org/Graphics/SVG/1.1/DTD/svg11.dtd"><svg t="1711148136869" class="icon" viewBox="0 0 1024 1024" version="1.1" xmlns="http://www.w3.org/2000/svg" p-id="9753" xmlns:xlink="http://www.w3.org/1999/xlink" width="24" height="24"><path d="M224 192a64 64 0 0 1 64-64h256a192 192 0 0 1 140.544 322.816A240 240 0 0 1 560 896H288a64 64 0 0 1-64-64V192z m336 320H320v288h240a144 144 0 0 0 9.856-287.68L560 512zM544 224H320v192h224a96 96 0 0 0 9.216-191.552L544 224z" fill="#2c2c2c" p-id="9754"></path></svg>