<?xml version="1.0" standalone="no"?><!DOCTYPE svg PUBLIC "-//W3C//DTD SVG 1.1//EN" "http://www.w3.org/Graphics/SVG/1.1/DTD/svg11.dtd"><svg t="1711144720017" class="icon" viewBox="0 0 1024 1024" version="1.1" xmlns="http://www.w3.org/2000/svg" p-id="16108" xmlns:xlink="http://www.w3.org/1999/xlink" width="24" height="24"><path d="M902.4 160H121.6c-6.4 0-12.8 6.4-12.8 6.4v57.6c0 6.4 6.4 6.4 12.8 6.4H896c6.4 0 12.8-6.4 12.8-6.4v-57.6c0-6.4 0-6.4-6.4-6.4zM902.4 582.4H121.6c-6.4 0-12.8 6.4-12.8 6.4v57.6c0 6.4 6.4 6.4 12.8 6.4H896c6.4 0 12.8-6.4 12.8-6.4v-57.6c0-6.4 0-6.4-6.4-6.4zM902.4 793.6H121.6c-6.4 0-6.4 6.4-6.4 6.4v57.6c0 6.4 6.4 6.4 6.4 6.4h780.8c6.4 0 6.4-6.4 6.4-6.4v-57.6s0-6.4-6.4-6.4zM902.4 371.2H121.6c-6.4 0-6.4 6.4-6.4 6.4v57.6c0 6.4 6.4 6.4 6.4 6.4h780.8c6.4 0 6.4-6.4 6.4-6.4v-57.6c0-6.4 0-6.4-6.4-6.4z" p-id="16109" fill="#2c2c2c"></path></svg>