<?xml version="1.0" standalone="no"?><!DOCTYPE svg PUBLIC "-//W3C//DTD SVG 1.1//EN" "http://www.w3.org/Graphics/SVG/1.1/DTD/svg11.dtd"><svg t="1711144543350" class="icon" viewBox="0 0 1024 1024" version="1.1" xmlns="http://www.w3.org/2000/svg" p-id="12011" xmlns:xlink="http://www.w3.org/1999/xlink" width="24" height="24"><path d="M512 106.666667c-67.242667 0-129.770667 20.394667-176.448 55.402666C288.874667 197.077333 256 248.704 256 309.333333c0 30.186667 12.8 60.437333 26.56 84.138667 14.293333 24.576 32.938667 47.744 51.2 64.576l57.813333-62.762667c-11.626667-10.709333-24.981333-27.072-35.221333-44.693333-10.773333-18.517333-15.018667-33.173333-15.018667-41.258667 0-27.733333 14.890667-56.106667 45.418667-78.997333C417.28 207.424 461.418667 192 512 192c50.56 0 94.72 15.424 125.248 38.336C667.754667 253.226667 682.666667 281.6 682.666667 309.333333h85.333333c0-60.629333-32.853333-112.256-79.552-147.264C641.770667 127.061333 579.242667 106.666667 512 106.666667z m181.333333 401.173333H106.666667v85.333333h577.621333C717.589333 609.962667 725.333333 643.029333 725.333333 672c0 81.109333-82.752 160-202.666666 160-123.2 0-202.666667-70.826667-202.666667-149.333333h-85.333333c0 145.365333 140.202667 234.666667 288 234.666666C673.728 917.333333 810.666667 814.762667 810.666667 672c0-20.053333-2.858667-49.578667-15.509334-78.826667H917.333333v-85.333333H693.333333z" p-id="12012" fill="#2c2c2c"></path></svg>