<?xml version="1.0" standalone="no"?><!DOCTYPE svg PUBLIC "-//W3C//DTD SVG 1.1//EN" "http://www.w3.org/Graphics/SVG/1.1/DTD/svg11.dtd"><svg t="1711145505276" class="icon" viewBox="0 0 1024 1024" version="1.1" xmlns="http://www.w3.org/2000/svg" p-id="18243" xmlns:xlink="http://www.w3.org/1999/xlink" width="24" height="24"><path d="M786.702 896c30.54 0 45.298 16.118 45.298 36s-14.758 36-45.298 36H238.298C207.758 968 193 951.882 193 932s14.758-36 45.298-36h548.404zM755 64c19.882 0 36 16.118 36 36v389l-0.037 4.614c-2.44 150.44-123.95 271.935-274.395 274.35L512 768c-152.547 0-276.499-122.427-278.963-274.386L233 489V100c0-19.882 16.118-36 36-36s36 16.118 36 36v389l0.028 3.423c1.81 111.617 91.962 201.758 203.583 203.55L512 696c113.18 0 205.144-90.833 206.972-203.577L719 489V100c0-19.882 16.118-36 36-36z" fill="#2c2c2c" p-id="18244"></path></svg>