<svg width="56" height="86" viewBox="0 0 56 86" fill="none" xmlns="http://www.w3.org/2000/svg">
<path d="M43.9375 18.1875H31.6875V5.875H25.125V18.1875H13V24.8125H25.125V37H31.6875V24.8125H43.9375V18.1875ZM27.9375 86C23.7292 86 19.9167 85.375 16.5 84.125C13.0833 82.875 10.1667 81.1667 7.75 79C5.375 76.8333 3.54167 74.3125 2.25 71.4375C0.958333 68.5208 0.3125 65.4375 0.3125 62.1875V24.1875C0.3125 20.9375 0.958333 17.875 2.25 15C3.54167 12.0833 5.375 9.54167 7.75 7.375C10.1667 5.20833 13.0833 3.5 16.5 2.25C19.9167 1 23.7292 0.375 27.9375 0.375C32.1875 0.375 36 1 39.375 2.25C42.7917 3.5 45.7083 5.20833 48.125 7.375C50.5417 9.54167 52.3958 12.0833 53.6875 15C54.9792 17.875 55.625 20.9375 55.625 24.1875V62.1875C55.625 65.4375 54.9792 68.5208 53.6875 71.4375C52.3958 74.3125 50.5417 76.8333 48.125 79C45.7083 81.1667 42.7917 82.875 39.375 84.125C36 85.375 32.1875 86 27.9375 86Z" fill="#755349"/>
</svg>
